<svg id="Layer_1" data-name="Layer 1" xmlns="http://www.w3.org/2000/svg" width="105" height="110" viewBox="0 0 105 110">
  <g id="salary">
    <g>
      <path d="M55.3,59.081l-11.028,8a6.907,6.907,0,0,0-7.665-.242L26.417,60.076A6.936,6.936,0,0,0,26.6,53.27L35.531,46.6,32.663,44.79l-9.187,6.858a1.583,1.583,0,0,0-.221,2.339,3.743,3.743,0,0,1-.229,5.282,1.584,1.584,0,0,0,.194,2.487L35.784,70.1a1.586,1.586,0,0,0,1.947-.152,3.738,3.738,0,0,1,5.28.229,1.585,1.585,0,0,0,2.1.211L58.181,60.9Z" fill="#202945"/>
      <path d="M82.3,37.821a3.711,3.711,0,0,1,1.208-2.592,1.584,1.584,0,0,0-.244-2.519L69.633,24.372a1.584,1.584,0,0,0-1.9.184,3.742,3.742,0,0,1-5.283-.229,1.582,1.582,0,0,0-2.114-.2L47.621,33.623l2.869,1.811,10.721-8a6.908,6.908,0,0,0,7.69.208l11.183,6.838a6.934,6.934,0,0,0-.156,6.734l-9.441,6.85,2.884,1.821,9.674-7.018a1.584,1.584,0,0,0,.237-2.353A3.717,3.717,0,0,1,82.3,37.821Z" fill="#202945"/>
    </g>
    <path d="M65.13,38.535a2.574,2.574,0,0,1-2.114-1.029,2.872,2.872,0,0,1,.879-3.991,3.354,3.354,0,0,1,1.959-.663,2.572,2.572,0,0,1,2.114,1.03,2.872,2.872,0,0,1-.879,3.991A3.36,3.36,0,0,1,65.13,38.535Zm.148-3.134a.692.692,0,0,0,.134.351.7.7,0,0,0,.294.234.709.709,0,0,0-.428-.585Z" fill="#202945"/>
    <path d="M38.694,60.974a2.577,2.577,0,0,1-2.115-1.03,2.872,2.872,0,0,1,.879-3.991,3.352,3.352,0,0,1,1.959-.663,2.575,2.575,0,0,1,2.115,1.03,2.873,2.873,0,0,1-.88,3.991A3.349,3.349,0,0,1,38.694,60.974Zm.147-3.134a.713.713,0,0,0,.428.584.709.709,0,0,0-.428-.584Z" fill="#202945"/>
    <path d="M62.577,82.446a1.585,1.585,0,0,1-1.584-1.584V64.551L27.656,43.5a1.583,1.583,0,0,1-.088-2.619L42.727,29.841a1.585,1.585,0,0,1,1.778-.059L78.88,51.487a1.582,1.582,0,0,1,.739,1.339V69.644a1.581,1.581,0,0,1-.654,1.282L63.508,82.143A1.588,1.588,0,0,1,62.577,82.446ZM31.32,42.069l32.1,20.27a1.581,1.581,0,0,1,.738,1.339V77.755l12.29-8.918V53.7L43.723,33.035Z" fill="#202945"/>
    <path d="M100.136,37.644l0-.023c0-.027-.01-.052-.012-.079a1.575,1.575,0,0,0-.04-.258c-.01-.038-.023-.074-.035-.112a1.52,1.52,0,0,0-.095-.224c-.017-.034-.034-.068-.054-.1a1.516,1.516,0,0,0-.164-.218c-.017-.02-.031-.041-.049-.06a1.641,1.641,0,0,0-.274-.225l-.015-.011-34.375-21.7a1.583,1.583,0,0,0-1.776.057L5.515,56.582c-.02.014-.034.033-.052.048a1.531,1.531,0,0,0-.191.178c-.027.03-.052.061-.077.093a1.6,1.6,0,0,0-.132.2c-.018.033-.037.063-.053.1a1.579,1.579,0,0,0-.1.288c0,.016-.011.03-.014.046a1.488,1.488,0,0,0-.036.329V74.641l0,.021a1.416,1.416,0,0,0,.02.195c0,.039.007.08.015.119.012.054.032.105.049.158a1.257,1.257,0,0,0,.045.135,1.322,1.322,0,0,0,.075.138c.023.043.044.087.071.128a1.471,1.471,0,0,0,.095.114,1.494,1.494,0,0,0,.1.121c.029.029.063.052.094.078a1.616,1.616,0,0,0,.153.12l.017.012L39.975,97.685a1.581,1.581,0,0,0,1.776-.058L62.7,82.427c-.041,0-.081.019-.122.019a1.585,1.585,0,0,1-1.584-1.584V79.75L40.758,94.433,8.029,73.769V69.588l31.946,20.17a1.583,1.583,0,0,0,1.776-.057L60.993,75.737V71.823L40.758,86.507,8.029,65.842V60.736L39.975,80.907a1.583,1.583,0,0,0,1.776-.057L60.993,66.886V64.551l-1.163-.735L40.758,77.656,9.267,57.772,28.339,43.933l-.683-.432a1.583,1.583,0,0,1-.088-2.619L42.727,29.841a1.585,1.585,0,0,1,1.778-.059l1.783,1.126L64.242,17.88,95.733,37.763,77.779,50.791l1.1.7a1.582,1.582,0,0,1,.739,1.339v.545L96.971,40.778v4.938L79.619,58.308v3.914L96.971,49.63v4.012L79.619,66.234v3.41a1.587,1.587,0,0,1-.127.6L99.485,55.732c.031-.022.055-.05.083-.074a1.578,1.578,0,0,0,.129-.115c.037-.038.067-.079.1-.119s.063-.079.091-.122a1.32,1.32,0,0,0,.185-.423,1.421,1.421,0,0,0,.038-.146,1.478,1.478,0,0,0,.018-.176c0-.036.011-.07.011-.107V37.672C100.139,37.662,100.136,37.653,100.136,37.644Z" fill="#202945"/>
  </g>
</svg>
