<svg id="Layer_1" data-name="Layer 1" xmlns="http://www.w3.org/2000/svg" width="105" height="110" viewBox="0 0 105 110">
  <g>
    <path d="M53.587,59.362c8.052,0,13.371,3.624,19,7.462,5.767,3.93,11.729,7.993,20.645,7.993V70.68c-7.639,0-12.824-3.534-18.314-7.276-5.154-3.513-10.461-7.129-17.936-7.989a31.929,31.929,0,0,1,2.582-5.4A25.4,25.4,0,0,0,78.012,44.39c10.037-8.041,10.479-22.2,10.479-22.2S74.472,19.4,64.433,27.44C59.261,31.584,56.756,37.387,55.606,42c.258-5.836-.8-14.95-6.677-22.239C39.353,7.883,22.4,7.54,22.4,7.54s-3.1,16.514,6.473,28.392C35.364,43.984,44.091,46.523,49.546,47.4a77.433,77.433,0,0,1,1.878,7.9c-8.4.572-13.91,4.418-19.242,8.154-5.3,3.714-10.3,7.221-18.045,7.221v4.137c9.052,0,14.831-4.051,20.42-7.969C40.051,63,45.239,59.362,53.587,59.362ZM41.982,29.412c.32-.275,1.452-1.381,1.76-1.646,6.416,6.942,11.574,18.8,11.574,18.8A43.681,43.681,0,0,1,67.109,34.505c.2.271,1.106,1.507,1.319,1.793a52.643,52.643,0,0,0-14.1,16.532A62.734,62.734,0,0,0,41.982,29.412Z" fill="#202945"/>
    <path d="M50.743,66.688l0,3.015c-9.06,2.261-10.786,14.842,2.834,16.416A6.286,6.286,0,0,1,57,87.342c1.271,1.156.583,4.565-3.327,4.565a3.986,3.986,0,0,1-3.579-1.982H43.814c.591,3.2,3.32,5.81,6.924,6.741l.005,2.728,5.853,0,0-2.722c8.135-1.593,11.531-14.233-2.055-16C51.79,80.311,50.806,79.55,50.3,79.1c-1.1-.985-.527-4.634,3.378-4.634,2.154,0,3.9,1.479,3.9,3.3h6.085c-.005-3.8-2.976-7-7.068-8.057V66.688Z" fill="#202945"/>
  </g>
</svg>
