<svg id="Layer_1" data-name="Layer 1" xmlns="http://www.w3.org/2000/svg" width="105" height="110" viewBox="0 0 105 110">
  <g>
    <path d="M89.725,83.658a6.024,6.024,0,1,0,6.024,6.023,6.031,6.031,0,0,0-6.024-6.023Zm-36.134,0a6.024,6.024,0,1,0,6.023,6.023,6.03,6.03,0,0,0-6.023-6.023Zm-8.518-2.5a12.037,12.037,0,0,1,5.506-3.149V67.848H33.22A12.8,12.8,0,0,0,20.681,78.072a12.048,12.048,0,1,1-6.094-.093A18.819,18.819,0,0,1,33.259,61.824h17.32V54.876a27.075,27.075,0,0,0,6.023,0v6.948H73.96A18.835,18.835,0,0,1,92.594,77.979a12.047,12.047,0,1,1-6.094.093A12.806,12.806,0,0,0,73.923,67.848H56.6V78.014a12.048,12.048,0,1,1-11.529,3.149ZM21.714,85.422a6.024,6.024,0,1,0,0,8.519,6.03,6.03,0,0,0,0-8.519Z" fill="#202945"/>
    <path d="M53.591,5.354A22.587,22.587,0,1,1,31,27.94,22.586,22.586,0,0,1,53.591,5.354Zm-1.325,24.58c-4.387-1.494-7.407-3.574-7.407-7.6,0-3.468,2.2-6.208,6.107-7.217a1.107,1.107,0,0,0,.742-1.1v-.753a1.2,1.2,0,0,1,1.129-1.129h1.881a1.2,1.2,0,0,1,1.131,1.129v.376a1.085,1.085,0,0,0,.97,1.071A14.489,14.489,0,0,1,61,15.658a1.045,1.045,0,0,1,.623,1.241l-.69,2.626a1,1,0,0,1-.538.665.976.976,0,0,1-.847.03,12.3,12.3,0,0,0-4.828-.957c-2.667,0-3.523,1.2-3.523,2.367,0,1.33,1.448,2.24,4.976,3.527C61.054,26.9,63,29.185,63,32.963c0,3.481-2.211,6.483-6.416,7.478a1.021,1.021,0,0,0-.737,1.051v1.129a1.211,1.211,0,0,1-1.133,1.128H52.837a1.206,1.206,0,0,1-1.129-1.129v-.753a1.057,1.057,0,0,0-1-1,17.827,17.827,0,0,1-5.26-1.326,1.041,1.041,0,0,1-.584-1.215l.707-2.791a1.022,1.022,0,0,1,1.415-.694,14.025,14.025,0,0,0,5.7,1.275c2.38,0,3.972-.953,3.972-2.575,0-1.576-1.321-2.571-4.4-3.609Z" fill="#202945" fill-rule="evenodd"/>
  </g>
</svg>
